<svg xmlns="http://www.w3.org/2000/svg" viewBox="0 0 34.86 32"><defs><style>.cls-1{fill:none;stroke:#fff;stroke-linecap:round;stroke-linejoin:round;stroke-width:2px;}.cls-2{fill:#fff;}</style></defs><title>fecha</title><g id="Layer_2" data-name="Layer 2"><g id="Layer_1-2" data-name="Layer 1"><g id="_Group_" data-name="&lt;Group&gt;"><rect id="_Path_" data-name="&lt;Path&gt;" class="cls-1" x="1" y="2.89" width="32.86" height="28.11" rx="2.7" ry="2.7"/><line id="_Path_2" data-name="&lt;Path&gt;" class="cls-1" x1="6.48" y1="1" x2="6.48" y2="5"/><line id="_Path_3" data-name="&lt;Path&gt;" class="cls-1" x1="11.95" y1="1" x2="11.95" y2="5"/><line id="_Path_4" data-name="&lt;Path&gt;" class="cls-1" x1="17.43" y1="1" x2="17.43" y2="5"/><line id="_Path_5" data-name="&lt;Path&gt;" class="cls-1" x1="22.91" y1="1" x2="22.91" y2="5"/><line id="_Path_6" data-name="&lt;Path&gt;" class="cls-1" x1="28.39" y1="1" x2="28.39" y2="5"/><line id="_Path_7" data-name="&lt;Path&gt;" class="cls-1" x1="1" y1="9.32" x2="33.86" y2="9.32"/><g id="_Group_2" data-name="&lt;Group&gt;"><path id="_Compound_Path_" data-name="&lt;Compound Path&gt;" class="cls-2" d="M16.81,26.5H8.73V24.74l3.58-3.93a7.72,7.72,0,0,0,1.05-1.45,2.47,2.47,0,0,0,.34-1.11,1.72,1.72,0,0,0-.3-1.07,1.15,1.15,0,0,0-1-.4,1.11,1.11,0,0,0-1,.52,2.3,2.3,0,0,0-.35,1.31H8.45l0,0a3.62,3.62,0,0,1,1.06-2.74,3.91,3.91,0,0,1,2.92-1.12,4.25,4.25,0,0,1,2.95.94,3.31,3.31,0,0,1,1,2.58,3.4,3.4,0,0,1-.58,2,24.35,24.35,0,0,1-2.11,2.51l-1.41,1.69,0,0h4.49Z"/><path id="_Compound_Path_2" data-name="&lt;Compound Path&gt;" class="cls-2" d="M25.26,22h1.17V24H25.26V26.5h-2.7V24H17.94l-.16-1.66,4.78-7.49v0h2.7Zm-5.17,0h2.47V18.34h0l-.3.6Z"/></g></g></g></g></svg>