<svg xmlns="http://www.w3.org/2000/svg" viewBox="0 0 51.96 50.51"><defs><style>.cls-1{opacity:0.5;}.cls-2,.cls-3{fill:none;}.cls-2,.cls-3,.cls-4{stroke:#fff;stroke-linecap:round;stroke-linejoin:round;}.cls-2{stroke-width:1.96px;}.cls-3,.cls-4{stroke-width:0.98px;}.cls-4{fill:#fff;}</style></defs><title>combinado</title><g id="Layer_2" data-name="Layer 2"><g id="Layer_1-2" data-name="Layer 1"><g id="_Group_" data-name="&lt;Group&gt;" class="cls-1"><polyline id="_Path_" data-name="&lt;Path&gt;" class="cls-2" points="9.38 23.63 1.06 23.63 5.65 30.47 0.98 37.32 12.41 37.32"/><path id="_Path_2" data-name="&lt;Path&gt;" class="cls-2" d="M26,11.77c-5.64,0-13.34,3.69-16.52,5.95,0,18,6.14,29.39,16.52,31.8C36.36,47.11,42.5,35.68,42.5,17.72,39.32,15.47,31.62,11.77,26,11.77Z"/><path id="_Path_3" data-name="&lt;Path&gt;" class="cls-3" d="M26,15.27c-4.47,0-11.31,2.84-13.1,4.32,0,14.67,5.37,24.65,13.1,26.51,7.74-1.86,13.1-11.84,13.1-26.51C37.29,18.11,30.45,15.27,26,15.27Z"/><polyline id="_Path_4" data-name="&lt;Path&gt;" class="cls-2" points="42.58 23.63 50.9 23.63 46.31 30.47 50.98 37.32 39.55 37.32"/><path id="_Path_5" data-name="&lt;Path&gt;" class="cls-4" d="M26,22.81a13.15,13.15,0,0,1-2.78,3.43v1.2h1.65V37h3V22.81Z"/><polygon id="_Path_6" data-name="&lt;Path&gt;" class="cls-4" points="25.98 0.49 27.4 3.5 30.7 3.92 28.28 6.2 28.9 9.46 25.98 7.87 23.07 9.46 23.68 6.2 21.26 3.92 24.56 3.5 25.98 0.49"/><g id="_Group_2" data-name="&lt;Group&gt;"><polygon id="_Path_7" data-name="&lt;Path&gt;" class="cls-4" points="16.11 6.91 16.84 8.47 18.55 8.69 17.3 9.87 17.62 11.56 16.11 10.74 14.59 11.56 14.91 9.87 13.66 8.69 15.37 8.47 16.11 6.91"/><polygon id="_Path_8" data-name="&lt;Path&gt;" class="cls-4" points="35.86 6.91 36.59 8.47 38.3 8.69 37.05 9.87 37.37 11.56 35.86 10.74 34.34 11.56 34.66 9.87 33.41 8.69 35.12 8.47 35.86 6.91"/></g></g></g></g></svg>