<svg xmlns="http://www.w3.org/2000/svg" viewBox="0 0 27 39.59"><defs><style>.cls-1{fill:none;stroke:#fff;stroke-linecap:round;stroke-linejoin:round;stroke-width:2px;}</style></defs><title>lugar</title><g id="Layer_2" data-name="Layer 2"><g id="Layer_1-2" data-name="Layer 1"><g id="_Group_" data-name="&lt;Group&gt;"><path id="_Path_" data-name="&lt;Path&gt;" class="cls-1" d="M13.5,30.53s3.65-4.68,8-10.24a14.14,14.14,0,0,0,3.24-8,11.29,11.29,0,1,0-22.57,0,14.14,14.14,0,0,0,3.24,8C9.85,25.85,13.5,30.53,13.5,30.53Z"/><circle id="_Path_2" data-name="&lt;Path&gt;" class="cls-1" cx="13.5" cy="12.3" r="5.64"/><path id="_Path_3" data-name="&lt;Path&gt;" class="cls-1" d="M6.65,28.41C3.25,29.4,1,31.1,1,33c0,3.06,5.6,5.55,12.5,5.55S26,36.11,26,33c0-1.94-2.25-3.65-5.65-4.64"/><path id="_Path_4" data-name="&lt;Path&gt;" class="cls-1" d="M8.41,30.63C7.57,31,7.07,31.5,7.07,32c0,1.25,2.88,2.27,6.43,2.27s6.43-1,6.43-2.27c0-.52-.5-1-1.34-1.38"/></g></g></g></svg>