<svg xmlns="http://www.w3.org/2000/svg" viewBox="0 0 36.96 32"><defs><style>.cls-1,.cls-2{fill:none;stroke:#fff;stroke-linecap:round;stroke-linejoin:round;}.cls-1{stroke-width:2px;}.cls-2{stroke-width:1.2px;}</style></defs><title>modTorneo</title><g id="Layer_2" data-name="Layer 2"><g id="Layer_1-2" data-name="Layer 1"><g id="_Group_" data-name="&lt;Group&gt;"><path id="_Path_" data-name="&lt;Path&gt;" class="cls-1" d="M28.32,13.3h1.49A6.15,6.15,0,0,0,36,7.15h0A6.15,6.15,0,0,0,29.81,1H28.32"/><path id="_Path_2" data-name="&lt;Path&gt;" class="cls-1" d="M8.64,13.3H7.15A6.15,6.15,0,0,1,1,7.15H1A6.15,6.15,0,0,1,7.15,1H8.64"/><polygon id="_Path_3" data-name="&lt;Path&gt;" class="cls-1" points="18.05 31 12.93 22.14 18.05 13.27 28.28 13.27 33.4 22.14 28.28 31 18.05 31"/><g id="_Group_2" data-name="&lt;Group&gt;"><line id="_Path_4" data-name="&lt;Path&gt;" class="cls-2" x1="19.1" y1="24.64" x2="27.22" y2="24.64"/><line id="_Path_5" data-name="&lt;Path&gt;" class="cls-2" x1="19.1" y1="22.14" x2="27.22" y2="22.14"/><line id="_Path_6" data-name="&lt;Path&gt;" class="cls-2" x1="19.1" y1="19.63" x2="27.22" y2="19.63"/></g><path id="_Path_7" data-name="&lt;Path&gt;" class="cls-1" d="M14.28,24.46c-1.06,2.33-2.85,4.3-4.89,4.3,0,1.05,0,2.24,0,2.24h9.09"/><path id="_Path_8" data-name="&lt;Path&gt;" class="cls-1" d="M28.27,13.35a10,10,0,0,0,.05-1V1H8.64V12.33a9.83,9.83,0,0,0,5,8.57"/></g></g></g></svg>