<svg xmlns="http://www.w3.org/2000/svg" viewBox="0 0 49.3 46.8"><defs><style>.cls-1{opacity:0.5;}.cls-2{fill:none;stroke:#fff;stroke-linecap:round;stroke-linejoin:round;stroke-width:1.8px;}.cls-3{fill:#fff;}</style></defs><title>playoff</title><g id="Layer_2" data-name="Layer 2"><g id="Layer_1-2" data-name="Layer 1"><g id="_Group_" data-name="&lt;Group&gt;" class="cls-1"><line id="_Path_" data-name="&lt;Path&gt;" class="cls-2" x1="11.35" y1="0.9" x2="19.26" y2="15.86"/><line id="_Path_2" data-name="&lt;Path&gt;" class="cls-2" x1="22.23" y1="0.9" x2="24.7" y2="5.55"/><line id="_Path_3" data-name="&lt;Path&gt;" class="cls-2" x1="27.34" y1="0.9" x2="19.44" y2="15.78"/><line id="_Path_4" data-name="&lt;Path&gt;" class="cls-2" x1="38.23" y1="0.9" x2="30.32" y2="15.78"/><circle id="_Path_5" data-name="&lt;Path&gt;" class="cls-2" cx="24.73" cy="32.43" r="13.47"/><path id="_Path_6" data-name="&lt;Path&gt;" class="cls-2" d="M31.14,20.58v-3.5a1.31,1.31,0,0,0-1.31-1.31H19.63a1.31,1.31,0,0,0-1.31,1.31v3.5"/><line id="_Path_7" data-name="&lt;Path&gt;" class="cls-2" x1="0.9" y1="32.43" x2="6.78" y2="32.43"/><g id="_Group_2" data-name="&lt;Group&gt;"><line id="_Path_8" data-name="&lt;Path&gt;" class="cls-2" x1="3.29" y1="24.77" x2="6.83" y2="26.04"/><line id="_Path_9" data-name="&lt;Path&gt;" class="cls-2" x1="42.48" y1="38.83" x2="46.01" y2="40.09"/></g><g id="_Group_3" data-name="&lt;Group&gt;"><line id="_Path_10" data-name="&lt;Path&gt;" class="cls-2" x1="3.29" y1="40.09" x2="6.83" y2="38.83"/><line id="_Path_11" data-name="&lt;Path&gt;" class="cls-2" x1="42.48" y1="26.04" x2="46.01" y2="24.77"/></g><line id="_Path_12" data-name="&lt;Path&gt;" class="cls-2" x1="42.53" y1="32.43" x2="48.4" y2="32.43"/><path id="_Path_13" data-name="&lt;Path&gt;" class="cls-3" d="M24.24,24.88A15.64,15.64,0,0,1,20.94,29v1.43h2v9.18h3.59V24.88Z"/></g></g></g></svg>