<svg xmlns="http://www.w3.org/2000/svg" viewBox="0 0 53 53"><defs><style>.cls-1{opacity:0.5;}.cls-2{fill:none;stroke:#fff;stroke-linecap:round;stroke-linejoin:round;stroke-width:3px;}</style></defs><title>creaTorneo</title><g id="Layer_2" data-name="Layer 2"><g id="Layer_1-2" data-name="Layer 1"><g id="_Group_" data-name="&lt;Group&gt;" class="cls-1"><circle id="_Path_" data-name="&lt;Path&gt;" class="cls-2" cx="26.5" cy="26.5" r="25"/><circle id="_Path_2" data-name="&lt;Path&gt;" class="cls-2" cx="10.94" cy="22.75" r="3.65"/><circle id="_Path_3" data-name="&lt;Path&gt;" class="cls-2" cx="34.6" cy="15.29" r="3.65"/><circle id="_Path_4" data-name="&lt;Path&gt;" class="cls-2" cx="19.24" cy="32.15" r="3.65"/><circle id="_Path_5" data-name="&lt;Path&gt;" class="cls-2" cx="33.72" cy="40.73" r="3.65"/><g id="_Group_2" data-name="&lt;Group&gt;"><path id="_Path_6" data-name="&lt;Path&gt;" class="cls-2" d="M33.54,11.66a47.59,47.59,0,0,0-4.63-10"/><path id="_Path_7" data-name="&lt;Path&gt;" class="cls-2" d="M34.72,37.06A48,48,0,0,0,35.89,26.5,48.16,48.16,0,0,0,35.31,19"/><path id="_Path_8" data-name="&lt;Path&gt;" class="cls-2" d="M28.91,51.38a47.65,47.65,0,0,0,3.57-7.12"/></g><g id="_Group_3" data-name="&lt;Group&gt;"><path id="_Path_9" data-name="&lt;Path&gt;" class="cls-2" d="M7.88,24.87A48.11,48.11,0,0,0,1.8,30.35"/><path id="_Path_10" data-name="&lt;Path&gt;" class="cls-2" d="M31,15.53A47.48,47.48,0,0,0,14,20.9"/><path id="_Path_11" data-name="&lt;Path&gt;" class="cls-2" d="M49.61,17a47.79,47.79,0,0,0-11.36-1.74"/></g><g id="_Group_4" data-name="&lt;Group&gt;"><path id="_Path_12" data-name="&lt;Path&gt;" class="cls-2" d="M17.6,35.42A47.48,47.48,0,0,0,13.91,48.1"/><path id="_Path_13" data-name="&lt;Path&gt;" class="cls-2" d="M31.61,17.48A48.07,48.07,0,0,0,21.1,29"/><path id="_Path_14" data-name="&lt;Path&gt;" class="cls-2" d="M45.23,9.94a47.57,47.57,0,0,0-7.48,3.41"/></g><g id="_Group_5" data-name="&lt;Group&gt;"><path id="_Path_15" data-name="&lt;Path&gt;" class="cls-2" d="M37.27,41.87a47.59,47.59,0,0,0,7.64,1.53"/><path id="_Path_16" data-name="&lt;Path&gt;" class="cls-2" d="M22.07,34.35a47.79,47.79,0,0,0,8.17,4.88"/><path id="_Path_17" data-name="&lt;Path&gt;" class="cls-2" d="M13.13,25.73a48.08,48.08,0,0,0,3.49,3.91"/><path id="_Path_18" data-name="&lt;Path&gt;" class="cls-2" d="M5.7,12.62a47.59,47.59,0,0,0,3.27,7"/></g></g></g></g></svg>