<svg xmlns="http://www.w3.org/2000/svg" viewBox="0 0 74.92 42.5"><defs><style>.cls-1{opacity:0.5;}.cls-2{fill:none;stroke:#fff;stroke-linecap:round;stroke-linejoin:round;stroke-width:2.5px;}</style></defs><title>grupos</title><g id="Layer_2" data-name="Layer 2"><g id="Layer_1-2" data-name="Layer 1"><g id="_Group_" data-name="&lt;Group&gt;" class="cls-1"><path id="_Path_" data-name="&lt;Path&gt;" class="cls-2" d="M58.08,41.25c2,0,2.8-1.46.12-4.58a20.61,20.61,0,0,0-11.89-7.8c-6.84-1.47-4-6.32-2-8.46,1.71-1.9,2.56-4.78,2.9-7.76.74-6.44-2.72-11.39-9.72-11.39S27,6.2,27.74,12.64c.34,3,1.19,5.86,2.9,7.76,1.93,2.14,4.81,7-2,8.46a20.61,20.61,0,0,0-11.89,7.8c-2.68,3.12-1.89,4.58.12,4.58Z"/><g id="_Group_2" data-name="&lt;Group&gt;"><path id="_Path_2" data-name="&lt;Path&gt;" class="cls-2" d="M19.86,26.54c-.73-1.21.32-2.84,1.1-3.71a8.32,8.32,0,0,0,1.72-4.59c.44-3.81-1.61-6.74-5.75-6.74s-6.19,2.93-5.75,6.74a8.32,8.32,0,0,0,1.72,4.59c1.14,1.27,2.75,3.76-1.2,5C3.4,30.43,2,34.95,1.42,38.2c-.5,2.72.15,3.05,1.49,3.05H8.19"/><path id="_Path_3" data-name="&lt;Path&gt;" class="cls-2" d="M55.06,26.54c.73-1.21-.32-2.84-1.1-3.71a8.32,8.32,0,0,1-1.72-4.59c-.44-3.81,1.61-6.74,5.75-6.74s6.19,2.93,5.75,6.74A8.32,8.32,0,0,1,62,22.83c-1.14,1.27-2.75,3.76,1.2,5,8.29,2.6,9.68,7.11,10.28,10.36.5,2.72-.15,3.05-1.49,3.05H66.74"/></g></g></g></g></svg>