<svg xmlns="http://www.w3.org/2000/svg" viewBox="0 0 40.57 31.6"><defs><style>.cls-1,.cls-2{fill:none;stroke:#fff;stroke-linecap:round;stroke-linejoin:round;}.cls-1{stroke-width:2px;}.cls-2{stroke-width:1.2px;}</style></defs><title>nEquipos</title><g id="Layer_2" data-name="Layer 2"><g id="Layer_1-2" data-name="Layer 1"><g id="_Group_" data-name="&lt;Group&gt;"><g id="_Group_2" data-name="&lt;Group&gt;"><path id="_Path_" data-name="&lt;Path&gt;" class="cls-1" d="M23.91,11.7,23,14.53s-.15,2.88-.15,4.79V30.6H8.08V19.32c0-1.9-.15-4.79-.15-4.79L7,11.7"/><polyline id="_Path_2" data-name="&lt;Path&gt;" class="cls-1" points="23.07 15.17 25.81 17.8 29.91 14.68 25.57 8.72 19.85 5.99 11.06 5.99 5.35 8.72 1 14.68 5.1 17.8 7.84 15.17"/><path id="_Path_3" data-name="&lt;Path&gt;" class="cls-1" d="M19.75,6.23a12.18,12.18,0,0,1-4.3,5.52,12.18,12.18,0,0,1-4.3-5.52"/></g><g id="_Group_3" data-name="&lt;Group&gt;"><path id="_Path_4" data-name="&lt;Path&gt;" class="cls-2" d="M34,6.31,33,9.15s-.15,2.88-.15,4.79V25.21H26.47"/><polyline id="_Path_5" data-name="&lt;Path&gt;" class="cls-2" points="33.13 9.78 35.87 12.42 39.97 9.29 35.63 3.33 29.91 0.6 21.12 0.6 18.65 1.78 15.41 3.33"/><path id="_Path_6" data-name="&lt;Path&gt;" class="cls-2" d="M29.81.84a12.18,12.18,0,0,1-4.3,5.52A12.18,12.18,0,0,1,21.22.84"/></g></g></g></g></svg>