<svg xmlns="http://www.w3.org/2000/svg" viewBox="0 0 38.96 36.1"><defs><style>.cls-1,.cls-2{fill:none;stroke:#fff;stroke-linecap:round;stroke-linejoin:round;}.cls-1{stroke-width:2px;}.cls-2{stroke-width:1.2px;}</style></defs><title>partidosDia</title><g id="Layer_2" data-name="Layer 2"><g id="Layer_1-2" data-name="Layer 1"><g id="_Group_" data-name="&lt;Group&gt;"><path id="_Path_" data-name="&lt;Path&gt;" class="cls-1" d="M22.7,31H35.26A2.7,2.7,0,0,0,38,28.3V5.59a2.7,2.7,0,0,0-2.7-2.7H7.8a2.7,2.7,0,0,0-2.7,2.7v7.85"/><line id="_Path_2" data-name="&lt;Path&gt;" class="cls-1" x1="10.58" y1="1" x2="10.58" y2="5"/><line id="_Path_3" data-name="&lt;Path&gt;" class="cls-1" x1="16.05" y1="1" x2="16.05" y2="5"/><line id="_Path_4" data-name="&lt;Path&gt;" class="cls-1" x1="21.53" y1="1" x2="21.53" y2="5"/><line id="_Path_5" data-name="&lt;Path&gt;" class="cls-1" x1="27.01" y1="1" x2="27.01" y2="5"/><line id="_Path_6" data-name="&lt;Path&gt;" class="cls-1" x1="32.49" y1="1" x2="32.49" y2="5"/><line id="_Path_7" data-name="&lt;Path&gt;" class="cls-1" x1="5.1" y1="9.32" x2="37.96" y2="9.32"/><g id="_Group_2" data-name="&lt;Group&gt;"><circle id="_Path_8" data-name="&lt;Path&gt;" class="cls-2" cx="10.31" cy="25.79" r="9.71"/><path id="_Path_9" data-name="&lt;Path&gt;" class="cls-2" d="M2.25,20.38a3,3,0,0,1,2-.36,11.8,11.8,0,0,0-.37,3.63,10.68,10.68,0,0,0-2.46,2.11s-.66-.42-.76-.88"/><path id="_Path_10" data-name="&lt;Path&gt;" class="cls-2" d="M9.77,16.12a6.56,6.56,0,0,0-2,2.24,11,11,0,0,1,3.16,1.92,11.44,11.44,0,0,1,3.48-1s.26-.94-1.44-2.78"/><path id="_Path_11" data-name="&lt;Path&gt;" class="cls-2" d="M19.64,23.17a8.78,8.78,0,0,0-2-.8,9,9,0,0,1-.68,3.34A12.49,12.49,0,0,1,18.48,29a10.66,10.66,0,0,0,1.28-1.06"/><path id="_Path_12" data-name="&lt;Path&gt;" class="cls-2" d="M10.47,35.48a23,23,0,0,0,2.32-2.06,6.55,6.55,0,0,0,3.12-.62,1.36,1.36,0,0,1,.12.8"/><path id="_Path_13" data-name="&lt;Path&gt;" class="cls-2" d="M7.73,35.12a9.67,9.67,0,0,1-2.58-3.3A10.48,10.48,0,0,1,2.3,30.13a1.15,1.15,0,0,0-.38.52"/><path id="_Path_14" data-name="&lt;Path&gt;" class="cls-2" d="M1.43,25.76a8.55,8.55,0,0,0,.87,4.38"/><path id="_Path_15" data-name="&lt;Path&gt;" class="cls-2" d="M10.13,24.17c-.9.62-2.22,1.2-3.58,2A14.77,14.77,0,0,0,7.11,30a7.75,7.75,0,0,0,4,.58A14.43,14.43,0,0,0,13,27.07C12.21,26.11,11.33,25.37,10.13,24.17Z"/><path id="_Path_16" data-name="&lt;Path&gt;" class="cls-2" d="M7.77,18.36A11.32,11.32,0,0,0,4.26,20"/><path id="_Path_17" data-name="&lt;Path&gt;" class="cls-2" d="M10.93,20.28a10.37,10.37,0,0,0-.8,3.88"/><path id="_Path_18" data-name="&lt;Path&gt;" class="cls-2" d="M14.42,19.28a9.16,9.16,0,0,1,3.18,3.08"/><path id="_Path_19" data-name="&lt;Path&gt;" class="cls-2" d="M3.88,23.65a9.5,9.5,0,0,0,2.66,2.54"/><path id="_Path_20" data-name="&lt;Path&gt;" class="cls-2" d="M7.11,30a11.3,11.3,0,0,1-2,1.78"/><path id="_Path_21" data-name="&lt;Path&gt;" class="cls-2" d="M11.15,30.61a11.14,11.14,0,0,1,1.64,2.8"/><path id="_Path_22" data-name="&lt;Path&gt;" class="cls-2" d="M16.92,25.71A14.86,14.86,0,0,1,13,27.07"/><path id="_Path_23" data-name="&lt;Path&gt;" class="cls-2" d="M18.48,29a10.14,10.14,0,0,1-2.56,3.84"/></g></g></g></g></svg>